<?xml version="1.0" standalone="no"?>
<!DOCTYPE svg PUBLIC "-//W3C//DTD SVG 20010904//EN"
 "http://www.w3.org/TR/2001/REC-SVG-20010904/DTD/svg10.dtd">
<svg version="1.0" xmlns="http://www.w3.org/2000/svg"
 width="2000.000000pt" height="1500.000000pt" viewBox="0 0 2000.000000 1500.000000"
 preserveAspectRatio="xMidYMid meet">

<g transform="translate(0.000000,1500.000000) scale(0.100000,-0.100000)"
fill="#000000" stroke="none">
<path d="M0 7500 l0 -7500 10000 0 10000 0 0 7500 0 7500 -10000 0 -10000 0 0
-7500z m3951 1075 c348 -61 646 -291 799 -617 35 -76 84 -227 76 -235 -2 -2
-15 1 -29 6 -20 8 -29 23 -42 68 -46 158 -150 327 -278 450 -136 130 -282 212
-462 259 -87 23 -120 27 -255 27 -136 0 -167 -3 -253 -26 -396 -106 -682 -408
-769 -812 -16 -77 -16 -313 0 -390 48 -223 148 -402 309 -556 133 -126 280
-208 461 -256 84 -22 117 -26 252 -26 136 0 168 4 255 27 92 24 228 83 315
137 27 17 43 20 65 15 l30 -8 -35 -29 c-55 -47 -246 -136 -350 -165 -118 -32
-315 -43 -441 -25 -286 41 -577 223 -737 458 -129 190 -192 395 -192 623 0
287 102 543 297 751 153 162 377 285 592 323 102 19 289 19 392 1z m3753 -356
l26 -20 0 -233 0 -233 36 33 c229 217 601 98 674 -215 8 -33 11 -88 8 -143 -5
-76 -11 -100 -42 -162 -44 -89 -111 -155 -204 -199 -64 -30 -73 -32 -187 -32
-116 0 -123 1 -188 33 -126 63 -215 183 -237 322 -14 91 -13 792 1 824 21 46
72 57 113 25z m-1584 -365 c103 -41 170 -108 212 -214 21 -52 22 -70 23 -323
l0 -269 -24 -19 c-30 -24 -62 -24 -94 1 l-25 20 -4 258 c-3 246 -5 259 -27
305 -41 82 -119 127 -224 127 -112 0 -190 -42 -232 -124 -25 -49 -25 -53 -25
-305 0 -248 -1 -255 -22 -278 -26 -28 -67 -30 -99 -4 l-24 19 0 392 0 392 24
19 c50 41 121 10 121 -52 l0 -31 31 27 c40 33 97 62 146 75 55 14 191 5 243
-16z m956 15 c79 -14 146 -52 204 -116 62 -68 91 -143 98 -249 7 -120 26 -114
-355 -114 l-313 0 6 -27 c12 -50 58 -125 98 -159 51 -44 125 -68 209 -67 58 0
79 6 140 37 40 20 84 36 98 36 35 0 61 -31 57 -67 -4 -37 -77 -86 -170 -114
-103 -32 -240 -24 -329 18 -92 44 -152 101 -194 186 -68 138 -68 284 0 424 81
165 256 248 451 212z m2141 -12 c40 -21 51 -58 29 -91 -15 -24 -19 -25 -128
-23 -106 2 -117 0 -171 -26 -40 -20 -66 -42 -85 -70 l-27 -40 -5 -283 c-3
-184 -9 -287 -16 -294 -6 -6 -27 -13 -46 -16 -28 -5 -40 -2 -57 15 -21 21 -21
27 -21 415 l0 395 22 15 c12 9 34 16 48 16 45 0 70 -26 70 -72 l0 -40 39 35
c45 41 70 55 126 74 53 17 180 11 222 -10z m684 13 c132 -25 251 -119 312
-247 l32 -68 3 -251 3 -252 -27 -21 c-59 -47 -124 -6 -124 79 l0 30 -54 -44
c-80 -65 -131 -81 -256 -81 -93 0 -112 3 -161 26 -105 49 -181 136 -219 250
-18 53 -21 81 -18 169 3 96 6 112 36 173 88 179 277 274 473 237z m915 -1
c109 -20 234 -106 234 -161 0 -12 -7 -30 -17 -40 -20 -23 -85 -24 -103 -2 -24
28 -96 64 -152 75 -147 30 -275 -60 -212 -149 23 -34 64 -50 187 -77 225 -50
317 -127 317 -265 0 -48 -40 -130 -81 -164 -60 -51 -114 -68 -229 -74 -114 -5
-196 10 -278 50 -57 27 -112 80 -112 107 0 27 51 81 77 81 10 0 42 -18 72 -40
85 -64 198 -86 306 -59 89 23 128 107 75 165 -32 35 -66 48 -192 78 -169 40
-239 79 -278 157 -29 56 -27 140 4 194 61 104 216 154 382 124z m1384 1 c161
-31 294 -154 336 -314 10 -36 14 -118 14 -278 l0 -227 -26 -20 c-56 -44 -113
-15 -121 62 l-6 46 -40 -35 c-23 -19 -66 -47 -97 -62 -50 -24 -66 -27 -165
-27 -100 0 -116 3 -172 29 -77 35 -164 123 -198 201 -149 335 123 692 475 625z
m1087 -20 c29 -12 68 -39 87 -60 l34 -38 28 30 c16 16 58 43 94 61 57 28 74
32 150 32 68 0 96 -5 138 -24 65 -29 124 -94 154 -170 21 -53 22 -71 22 -344
l1 -289 -24 -19 c-30 -25 -62 -24 -95 2 l-26 20 0 249 c0 279 -8 335 -51 385
-38 43 -85 58 -159 53 -71 -5 -123 -40 -151 -102 -17 -36 -19 -68 -19 -292 0
-157 -4 -263 -11 -283 -19 -53 -67 -66 -113 -30 l-26 20 0 252 c-1 271 -7 323
-47 375 -36 47 -83 65 -160 60 -51 -3 -69 -9 -100 -34 -74 -59 -78 -75 -81
-379 -3 -259 -4 -271 -24 -292 -26 -28 -68 -30 -99 -4 l-24 19 -3 379 c-2 409
-1 419 51 437 41 15 80 -3 91 -41 l10 -31 34 26 c85 65 214 78 319 32z m1469
1 c28 -12 68 -40 89 -61 l38 -38 24 28 c13 16 54 44 91 62 59 29 76 33 152 33
68 0 95 -5 135 -23 99 -45 156 -127 175 -250 6 -39 10 -172 8 -311 -3 -241 -3
-243 -27 -262 -30 -25 -62 -24 -95 2 l-26 20 0 257 c0 267 -6 318 -37 361 -36
48 -70 65 -136 69 -80 5 -135 -20 -174 -80 l-28 -41 -5 -285 c-5 -283 -5 -284
-29 -303 -30 -25 -62 -24 -95 2 l-26 20 0 257 c0 267 -6 318 -37 361 -36 48
-70 65 -136 69 -93 6 -149 -25 -193 -108 -17 -31 -20 -67 -24 -313 -5 -261 -6
-280 -24 -293 -28 -20 -73 -17 -96 6 -19 19 -20 33 -20 410 0 377 1 391 20
410 39 39 120 12 120 -41 0 -19 2 -19 36 7 86 66 215 80 320 35z m1444 19
c115 -22 231 -101 287 -198 55 -93 63 -144 63 -392 l0 -229 -26 -20 c-57 -45
-124 -7 -124 69 l0 42 -42 -37 c-23 -19 -67 -48 -98 -63 -50 -24 -66 -27 -165
-27 -102 0 -115 2 -175 31 -167 79 -261 269 -230 465 37 245 266 405 510 359z
m1117 -16 c43 -32 50 -50 33 -82 -16 -27 -16 -27 -130 -27 -98 -1 -122 -4
-165 -23 -63 -29 -84 -48 -106 -97 -17 -36 -19 -69 -19 -307 l0 -267 -26 -20
c-33 -26 -65 -27 -95 -2 l-24 19 0 390 c0 369 1 391 19 411 25 27 79 28 106 1
12 -12 20 -33 20 -54 l0 -35 33 30 c68 64 144 90 250 86 58 -3 85 -9 104 -23z
m-13978 -179 c32 -42 115 -150 183 -241 l123 -165 3 231 2 231 25 11 c19 8 28
8 40 -2 23 -19 23 -581 -1 -604 -30 -31 -36 -25 -169 154 -60 80 -138 183
-174 230 l-66 84 -5 -233 c-4 -204 -7 -235 -22 -244 -12 -8 -21 -7 -32 2 -14
12 -16 51 -16 305 0 295 2 316 37 316 7 0 39 -34 72 -75z m768 67 c19 -12 254
-578 247 -595 -8 -21 -32 -29 -53 -17 -10 5 -28 37 -41 70 l-23 61 -149 -3
-150 -3 -25 -62 c-13 -34 -31 -64 -39 -67 -21 -8 -54 11 -54 30 0 18 227 563
242 582 12 14 27 15 45 4z m642 -357 c59 -30 55 -118 -6 -144 -73 -30 -142 53
-97 117 14 21 45 40 67 41 4 1 21 -6 36 -14z m-139 -400 c47 -50 12 -135 -56
-135 -29 0 -84 49 -84 75 0 22 27 72 42 78 34 14 75 6 98 -18z"/>
<path d="M7969 7739 c-148 -22 -248 -157 -237 -320 13 -177 141 -290 313 -277
151 13 258 134 259 293 1 87 -15 142 -57 197 -64 83 -167 123 -278 107z"/>
<path d="M6890 7731 c-69 -25 -139 -97 -162 -167 l-15 -49 265 -3 c146 -1 267
-1 268 1 10 9 -29 107 -56 144 -61 82 -188 114 -300 74z"/>
<path d="M9769 7739 c-131 -20 -227 -129 -237 -270 -9 -128 45 -235 148 -293
50 -28 63 -31 140 -31 75 0 91 3 138 29 204 113 197 441 -11 540 -60 28 -112
35 -178 25z"/>
<path d="M12069 7739 c-65 -10 -120 -41 -167 -94 -56 -63 -76 -127 -70 -224
11 -179 138 -293 313 -279 180 15 298 193 251 378 -40 155 -169 242 -327 219z"/>
<path d="M16069 7739 c-65 -10 -120 -41 -167 -94 -56 -63 -76 -127 -70 -224
11 -179 138 -293 313 -279 235 19 342 304 189 505 -53 69 -161 107 -265 92z"/>
<path d="M4028 7472 l-56 -137 110 -3 c61 -1 113 0 116 2 5 6 -97 264 -107
271 -4 2 -33 -58 -63 -133z"/>
</g>
</svg>
